<?xml version="1.0" encoding="UTF-8" standalone="no"?>
<svg
   width="62"
   height="62"
   version="1"
   id="svg14"
   sodipodi:docname="resharpercpp.svg"
   inkscape:version="1.4 (unknown)"
   xmlns:inkscape="http://www.inkscape.org/namespaces/inkscape"
   xmlns:sodipodi="http://sodipodi.sourceforge.net/DTD/sodipodi-0.dtd"
   xmlns="http://www.w3.org/2000/svg"
   xmlns:svg="http://www.w3.org/2000/svg">
  <defs
     id="defs14" />
  <sodipodi:namedview
     id="namedview14"
     pagecolor="#ffffff"
     bordercolor="#000000"
     borderopacity="0.25"
     inkscape:showpageshadow="2"
     inkscape:pageopacity="0.0"
     inkscape:pagecheckerboard="0"
     inkscape:deskcolor="#d1d1d1"
     inkscape:zoom="12.109375"
     inkscape:cx="31.95871"
     inkscape:cy="32"
     inkscape:window-width="1920"
     inkscape:window-height="998"
     inkscape:window-x="0"
     inkscape:window-y="0"
     inkscape:window-maximized="1"
     inkscape:current-layer="svg14" />
  <g
     id="g14"
     transform="matrix(0.98214286,0,0,0.98245614,-0.42857152,-0.92982455)">
    <path
       style="opacity:0.2"
       d="M 6.8007812,61 C 5.2495812,61 4,59.750418 4,58.199218 v -2 C 4,57.750418 5.2495812,59 6.8007812,59 H 32 57.199218 C 58.750418,59 60,57.750418 60,56.199218 v 2 C 60,59.750418 58.750418,61 57.199218,61 H 32 Z"
       id="path1" />
    <path
       style="fill:#ffb380"
       d="M 32,4 H 6.8 C 5.2488,4 4,5.2488 4,6.8 V 32 h 28 z"
       id="path2" />
    <path
       style="fill:#c83771"
       d="M 32,4 H 57.2 C 58.7512,4 60,5.2488 60,6.8 V 32 H 32 Z"
       id="path3" />
    <path
       style="fill:#a02c5a"
       d="M 32,60 H 6.8 C 5.2488,60 4,58.7512 4,57.2 V 32 h 28 z"
       id="path4" />
    <path
       style="fill:#ff9955"
       d="M 32,60 H 57.2 C 58.7512,60 60,58.7512 60,57.2 V 32 H 32 Z"
       id="path5" />
    <path
       style="opacity:0.2;fill:#ffffff"
       d="M 6.8007812,4 C 5.2495812,4 4,5.2495812 4,6.8007812 v 1 C 4,6.2495813 5.2495812,5 6.8007812,5 H 32 57.199219 C 58.750419,5 60,6.2495812 60,7.8007812 v -1 C 60,5.2495813 58.750419,4 57.199219,4 H 32 Z"
       id="path6" />
    <rect
       style="fill:#2e3b52;fill-opacity:1"
       width="40"
       height="40"
       x="12"
       y="12"
       id="rect6"
       ry="2.9993191"
       rx="3.1110382" />
    <path
       style="opacity:0.2;fill:none;stroke:#000000;stroke-width:4;stroke-linecap:round"
       d="M 18.000485,46.9998 H 34.000484"
       id="path7" />
    <path
       style="fill:none;stroke:#f2f2f2;stroke-width:4;stroke-linecap:round;stroke-opacity:1"
       d="M 18.000485,46 H 34.000484"
       id="path8" />
    <path
       style="opacity:0.2;fill:none;stroke:#000000;stroke-width:4;stroke-linecap:round"
       d="m 26.000488,34.99932 -4.000004,-6 m -4.000001,-2.000006 c 0,0 8.000005,0.929002 8.000005,-3.999994 0,-4.929003 -8.000005,-4.000003 -8.000005,-4.000003 m 1.96e-4,16.000199 V 18.999513"
       id="path9" />
    <path
       style="fill:none;stroke:#f2f2f2;stroke-width:4;stroke-linecap:round;stroke-opacity:1"
       d="m 26.000488,33.99952 -4.000004,-6 m -4.000001,-2.000006 c 0,0 8.000005,0.929002 8.000005,-3.999994 0,-4.929003 -8.000005,-4.000003 -8.000005,-4.000003 m 1.96e-4,16.000199 V 17.999713"
       id="path10" />
    <path
       style="opacity:0.2;fill:none;stroke:#000000;stroke-width:4;stroke-linecap:round"
       d="m 32.000484,30.99932 h 8 m -4,4 v -8"
       id="path11" />
    <path
       style="fill:none;stroke:#f2f2f2;stroke-width:4;stroke-linecap:round;stroke-opacity:1"
       d="m 32.000484,29.99952 h 8 m -4,4 v -8"
       id="path12" />
    <path
       style="opacity:0.2;fill:none;stroke:#000000;stroke-width:4;stroke-linecap:round"
       d="m 38.000484,20.99932 h 8 m -4,4 v -8.000001"
       id="path13" />
    <path
       style="fill:none;stroke:#f3f3f3;stroke-width:4;stroke-linecap:round;stroke-opacity:1"
       d="m 38.000484,19.999519 h 8 m -4,4.000001 v -8.000001"
       id="path14" />
  </g>
</svg>
