<?xml version="1.0" encoding="UTF-8" standalone="no"?>
<svg
   width="62"
   height="62"
   version="1"
   id="svg12"
   sodipodi:docname="resharper.svg"
   inkscape:version="1.4 (unknown)"
   xmlns:inkscape="http://www.inkscape.org/namespaces/inkscape"
   xmlns:sodipodi="http://sodipodi.sourceforge.net/DTD/sodipodi-0.dtd"
   xmlns="http://www.w3.org/2000/svg"
   xmlns:svg="http://www.w3.org/2000/svg">
  <defs
     id="defs12" />
  <sodipodi:namedview
     id="namedview12"
     pagecolor="#ffffff"
     bordercolor="#000000"
     borderopacity="0.25"
     inkscape:showpageshadow="2"
     inkscape:pageopacity="0.0"
     inkscape:pagecheckerboard="0"
     inkscape:deskcolor="#d1d1d1"
     showgrid="false"
     inkscape:zoom="6.0546875"
     inkscape:cx="27.416774"
     inkscape:cy="33.775484"
     inkscape:window-width="1920"
     inkscape:window-height="998"
     inkscape:window-x="0"
     inkscape:window-y="0"
     inkscape:window-maximized="1"
     inkscape:current-layer="svg12">
    <inkscape:grid
       id="grid12"
       units="px"
       originx="0"
       originy="0"
       spacingx="1"
       spacingy="1"
       empcolor="#0099e5"
       empopacity="0.30196078"
       color="#0099e5"
       opacity="0.14901961"
       empspacing="5"
       enabled="true"
       visible="false" />
  </sodipodi:namedview>
  <g
     id="g12"
     transform="translate(-0.5,-0.5)">
    <path
       style="opacity:0.2;stroke-width:0.982303"
       d="M 6.750767,60 C 5.2272678,60 4,58.772338 4,57.248358 v -1.96492 c 0,1.52399 1.2272678,2.751652 2.750767,2.751652 H 31.5 56.249235 C 57.772739,58.03509 59,56.807428 59,55.283438 v 1.96492 C 59,58.772338 57.772739,60 56.249235,60 H 31.5 Z"
       id="path1" />
    <path
       style="fill:#a02c5a;stroke-width:0.982303"
       d="M 31.5,4 H 6.75 C 5.2264999,4 4,5.226891 4,6.750877 V 31.50877 h 27.5 z"
       id="path2" />
    <path
       style="fill:#ffb380;stroke-width:0.982303"
       d="M 31.5,4 H 56.250007 C 57.773501,4 59,5.226891 59,6.750877 V 31.50877 H 31.5 Z"
       id="path3" />
    <path
       style="fill:#d35f8d;stroke-width:0.982303"
       d="M 31.5,59.01754 H 6.75 C 5.2264999,59.01754 4,57.79065 4,56.26667 v -24.7579 h 27.5 z"
       id="path4" />
    <path
       style="fill:#a02c5a;stroke-width:0.982303"
       d="M 31.5,59.01754 H 56.250007 C 57.773501,59.01754 59,57.79065 59,56.26667 V 31.50877 H 31.5 Z"
       id="path5" />
    <path
       style="opacity:0.2;fill:#ffffff;stroke-width:0.982303"
       d="M 6.750767,4 C 5.2272678,4 4,5.2276592 4,6.7516442 v 0.982457 C 4,6.2101153 5.2272678,4.982456 6.750767,4.982456 H 31.5 56.249236 C 57.77274,4.982456 59,6.2101152 59,7.7341012 V 6.7516442 C 59,5.2276593 57.77274,4 56.249236,4 H 31.5 Z"
       id="path6" />
    <rect
       style="fill:#2e3b52;stroke-width:0.982303;fill-opacity:1"
       width="39.285721"
       height="39.298248"
       x="11.857142"
       y="11.859648"
       id="rect6"
       ry="3.6403522"
       rx="3.6428642" />
    <path
       style="opacity:0.2;fill:none;stroke:#000000;stroke-width:3.92917;stroke-linecap:round"
       d="M 17.75048,46.24542 H 33.464767"
       id="path7" />
    <path
       style="fill:none;stroke:#f3f3f3;stroke-width:3.92917;stroke-linecap:round;stroke-opacity:1"
       d="M 17.75048,45.26316 H 33.464767"
       id="path8" />
    <path
       style="opacity:0.2;fill:none;stroke:#000000;stroke-width:3.92917;stroke-linecap:round"
       d="M 25.607629,34.45547 21.679048,28.56074 M 17.75048,26.595814 c 0,0 7.857149,0.912705 7.857149,-3.929814 0,-4.842533 -7.857149,-3.929833 -7.857149,-3.929833 m 1.86e-4,15.719499 V 18.736363"
       id="path9" />
    <path
       style="fill:none;stroke:#f2f2f2;stroke-width:3.92917;stroke-linecap:round;stroke-opacity:1"
       d="M 25.607629,33.47321 21.679048,27.57848 M 17.75048,25.613554 c 0,0 7.857149,0.912712 7.857149,-3.929814 0,-4.842533 -7.857149,-3.929833 -7.857149,-3.929833 m 1.86e-4,15.719499 V 17.754103"
       id="path10" />
    <path
       style="opacity:0.2;fill:none;stroke:#000000;stroke-width:3.92917;stroke-linecap:round"
       d="m 31.500574,30.525748 h 15.714288 v 0 0 m -15.714288,-7.85985 h 15.714288 v 0 0 m -3.928477,11.78957 v -15.719301 0 0 m -7.857334,15.719301 v -15.719301 0 0"
       id="path11" />
    <path
       style="fill:none;stroke:#f3f3f3;stroke-width:3.92917;stroke-linecap:round;stroke-opacity:1"
       d="m 31.500574,29.543488 h 15.714288 v 0 0 m -15.714288,-7.85985 h 15.714288 v 0 0 m -3.928477,11.78957 v -15.719301 0 0 m -7.857334,15.719301 v -15.719301 0 0"
       id="path12" />
  </g>
</svg>
